<?xml version="1.0" encoding="UTF-8"?>
<svg id="Layer_1" data-name="Layer 1" xmlns="http://www.w3.org/2000/svg" viewBox="0 0 83.73 23.49">
  <defs>
    <style>
      .cls-1 {
        fill: #ee7800;
      }

      .cls-2 {
        fill: #9fa0a0;
      }
    </style>
  </defs>
  <path class="cls-1" d="m40.12,19.52h.3c.24,1.06.9,1.6,1.97,1.6s1.73-.53,1.98-1.6h.32c-.08.69-.32,1.23-.73,1.62-.4.38-.92.58-1.56.58s-1.15-.2-1.55-.58c-.4-.39-.64-.94-.72-1.62"/>
  <path class="cls-1" d="m44.36,19.43s-.07.03-.08.07c-.24,1.03-.86,1.53-1.9,1.53s-1.65-.5-1.88-1.53c-.01-.04-.05-.07-.08-.07h-.31s-.05,0-.06.03c-.01.01-.02.04-.02.07.08.71.33,1.27.75,1.67.41.4.96.61,1.61.61s1.2-.2,1.62-.61c.42-.4.67-.97.76-1.67,0-.02,0-.05-.03-.07-.01-.02-.04-.03-.06-.03h-.32Zm.21.17c-.09.62-.31,1.12-.69,1.48-.39.38-.88.56-1.5.56s-1.11-.18-1.49-.56c-.37-.35-.59-.86-.68-1.48h.14c.27,1.06.95,1.59,2.03,1.59s1.77-.54,2.04-1.59h.15Z"/>
  <path class="cls-1" d="m41.06,18.79c-.16,0-.29-.06-.4-.17-.11-.12-.17-.25-.17-.4s.06-.29.17-.41c.11-.11.24-.16.4-.16s.3.05.41.16c.11.11.16.25.16.41s-.06.29-.17.4c-.12.11-.25.17-.4.17"/>
  <path class="cls-1" d="m40.59,17.75c-.12.13-.19.29-.19.46s.07.33.19.46c.14.13.29.19.46.19s.33-.06.46-.19c.13-.12.2-.28.2-.46s-.07-.34-.19-.46c-.13-.13-.29-.19-.47-.19s-.33.07-.46.19m.12.81c-.09-.1-.14-.21-.14-.34s.05-.25.14-.34c.1-.1.21-.15.34-.15s.25.04.34.15c.1.09.14.2.14.34s-.05.25-.14.34c-.1.1-.21.15-.34.15s-.24-.05-.34-.15"/>
  <path class="cls-1" d="m43.8,18.76c-.16,0-.29-.05-.41-.17-.11-.11-.16-.25-.16-.4,0-.16.05-.3.16-.41.11-.11.25-.17.41-.17s.29.06.4.17c.12.11.17.25.17.41,0,.15-.05.29-.17.4-.11.11-.24.17-.4.17"/>
  <path class="cls-1" d="m43.34,17.73c-.12.12-.19.28-.19.46s.07.34.19.46c.12.12.28.19.46.19s.33-.06.46-.19c.12-.12.19-.29.19-.46,0-.19-.06-.34-.19-.46-.13-.13-.29-.19-.46-.19s-.34.07-.47.19m.12.8c-.09-.09-.14-.21-.14-.34,0-.14.04-.26.14-.34.09-.1.21-.15.34-.15s.24.05.34.15c.09.09.14.2.14.34s-.05.24-.14.34c-.1.1-.21.14-.34.14s-.25-.05-.34-.14"/>
  <path class="cls-1" d="m38.15,19.14c0,2.35,1.91,4.26,4.27,4.26s4.26-1.91,4.26-4.26-1.91-4.26-4.26-4.26-4.27,1.92-4.27,4.26m.61,0c0-2.02,1.64-3.66,3.66-3.66s3.65,1.64,3.65,3.66-1.64,3.66-3.65,3.66-3.66-1.64-3.66-3.66"/>
  <path class="cls-1" d="m38.07,19.14c0,2.4,1.95,4.35,4.35,4.35s4.34-1.95,4.34-4.35-1.95-4.35-4.34-4.35-4.35,1.95-4.35,4.35m.17,0c0-2.3,1.88-4.18,4.18-4.18s4.17,1.88,4.17,4.18-1.87,4.18-4.17,4.18-4.18-1.87-4.18-4.18"/>
  <path class="cls-1" d="m38.68,19.14c0,2.06,1.68,3.74,3.74,3.74s3.74-1.68,3.74-3.74-1.68-3.74-3.74-3.74-3.74,1.68-3.74,3.74m.16,0c0-1.97,1.61-3.57,3.58-3.57s3.57,1.6,3.57,3.57-1.6,3.57-3.57,3.57-3.58-1.6-3.58-3.57"/>
  <path class="cls-2" d="m8.66,5.89l-1.19,1.16c-.76-.79-1.64-1.18-2.65-1.18-.88,0-1.62.28-2.21.86-.59.57-.89,1.27-.89,2.08s.3,1.56.92,2.15c.62.59,1.38.88,2.28.88.59,0,1.08-.12,1.49-.36.4-.24.73-.61.97-1.11h-2.6v-1.59h4.52v.37c.01.77-.19,1.5-.6,2.19-.4.69-.93,1.22-1.58,1.58-.64.37-1.4.55-2.27.55-.92,0-1.76-.2-2.48-.6-.73-.39-1.3-.96-1.73-1.69-.42-.73-.63-1.53-.63-2.37,0-1.16.39-2.18,1.18-3.04.93-1.02,2.14-1.54,3.62-1.54.78,0,1.51.14,2.18.43.57.24,1.14.65,1.68,1.23"/>
  <path class="cls-2" d="m14.59,5.87c-.83,0-1.53.28-2.09.85-.57.57-.85,1.28-.85,2.16,0,.97.35,1.74,1.06,2.31.55.44,1.19.66,1.9.66.81,0,1.49-.29,2.06-.86.57-.57.86-1.28.86-2.12s-.29-1.54-.86-2.12c-.57-.58-1.27-.87-2.09-.87m.02-1.64c1.27,0,2.35.45,3.27,1.35.91.9,1.37,2,1.37,3.3s-.45,2.37-1.35,3.26c-.9.89-1.99,1.33-3.28,1.33s-2.46-.46-3.35-1.37c-.89-.91-1.33-2-1.33-3.25,0-.84.21-1.61.62-2.32.41-.71.98-1.27,1.71-1.68.73-.41,1.5-.62,2.34-.62"/>
  <path class="cls-2" d="m24.38,5.87c-.83,0-1.52.28-2.09.85-.56.57-.85,1.28-.85,2.16,0,.97.35,1.74,1.06,2.31.55.44,1.19.66,1.9.66.81,0,1.5-.29,2.07-.86.57-.57.85-1.28.85-2.12s-.29-1.54-.86-2.12c-.57-.58-1.27-.87-2.09-.87m.02-1.64c1.27,0,2.36.45,3.27,1.35.91.9,1.36,2,1.36,3.3s-.44,2.37-1.35,3.26c-.9.89-1.99,1.33-3.27,1.33s-2.46-.46-3.35-1.37c-.89-.91-1.33-2-1.33-3.25,0-.84.2-1.61.62-2.32.41-.71.98-1.27,1.71-1.68.73-.41,1.5-.62,2.34-.62"/>
  <path class="cls-2" d="m31.45,6.09v5.55h.81c.79,0,1.36-.09,1.72-.27.35-.17.65-.47.87-.88.23-.42.35-.93.35-1.53,0-.94-.27-1.66-.81-2.17-.48-.46-1.27-.69-2.34-.69h-.59Zm-1.68-1.64h2.03c1.31,0,2.29.16,2.92.48.64.32,1.16.83,1.57,1.55.41.72.62,1.55.62,2.51,0,.68-.11,1.3-.34,1.88-.23.57-.55,1.03-.95,1.41-.41.38-.85.63-1.32.78-.47.14-1.29.21-2.46.21h-2.06V4.45Z"/>
  <path class="cls-1" d="m46.99,2.09l-2.17,1.62c-.76-.88-1.54-1.33-2.33-1.33-.38,0-.7.08-.94.26-.24.17-.37.37-.37.58s.09.42.26.61c.24.26.96.81,2.14,1.66,1.12.78,1.79,1.27,2.03,1.48.59.51,1.01.98,1.26,1.44.24.46.37.96.37,1.5,0,1.06-.44,1.93-1.31,2.62-.88.7-2.02,1.04-3.42,1.04-1.1,0-2.06-.23-2.87-.68-.81-.45-1.52-1.16-2.1-2.12l2.46-1.25c.74,1.15,1.59,1.72,2.55,1.72.5,0,.92-.13,1.26-.37.34-.25.52-.54.52-.86,0-.29-.13-.59-.38-.88-.26-.29-.83-.74-1.71-1.35-1.68-1.15-2.76-2.03-3.24-2.66-.49-.63-.73-1.25-.73-1.87,0-.9.41-1.67,1.22-2.3.82-.64,1.82-.97,3.02-.97.77,0,1.5.15,2.2.45.7.3,1.45.85,2.26,1.64"/>
  <polygon class="cls-1" points="50.04 .32 52.39 .32 55.43 9.34 58.48 .32 60.87 .32 63.03 13.26 60.64 13.26 59.25 5.09 56.49 13.26 54.35 13.26 51.6 5.09 50.17 13.26 47.78 13.26 50.04 .32"/>
  <rect class="cls-1" x="64.35" y=".32" width="2.46" height="12.94"/>
  <polygon class="cls-1" points="69.09 .32 71.55 .32 71.55 10.9 75.18 10.9 75.18 13.26 69.09 13.26 69.09 .32"/>
  <polygon class="cls-1" points="76.62 .32 83.69 .32 83.69 2.7 79.07 2.7 79.07 5.06 83.69 5.06 83.69 7.44 79.07 7.44 79.07 10.83 83.69 10.83 83.69 13.26 76.62 13.26 76.62 .32"/>
  <path class="cls-2" d="m37.33,16.53l-1.08,1.02c-.73-.77-1.55-1.15-2.46-1.15-.77,0-1.42.26-1.94.79-.53.53-.79,1.17-.79,1.95,0,.54.11,1.01.35,1.43.23.41.56.74.99.98.43.24.9.36,1.42.36.44,0,.85-.08,1.21-.25.37-.16.78-.46,1.21-.91l1.04,1.09c-.59.58-1.15.98-1.68,1.21-.53.22-1.13.34-1.81.34-1.25,0-2.27-.4-3.07-1.19-.8-.79-1.2-1.81-1.2-3.05,0-.8.18-1.52.54-2.14.36-.62.89-1.13,1.56-1.51.68-.38,1.41-.57,2.19-.57.66,0,1.3.14,1.91.42.62.28,1.15.67,1.59,1.19"/>
  <polygon class="cls-2" points="48.47 15.12 49.94 15.12 51.81 20.74 53.7 15.12 55.19 15.12 56.52 23.17 55.04 23.17 54.19 18.09 52.48 23.17 51.12 23.17 49.44 18.09 48.55 23.17 47.06 23.17 48.47 15.12"/>
  <path class="cls-2" d="m58.98,18.27h.5c.39,0,.66-.03.81-.08.15-.05.27-.15.36-.27.09-.13.13-.28.13-.46,0-.31-.12-.54-.36-.68-.18-.11-.51-.16-.99-.16h-.44v1.66Zm-1.51-3.15h1.63c.88,0,1.51.08,1.9.25.39.16.7.43.93.79.22.36.33.8.33,1.3,0,.56-.14,1.03-.44,1.4-.3.37-.7.64-1.21.78-.3.09-.84.12-1.63.12v3.41h-1.51v-8.05Z"/>
  <path class="cls-2" d="m65.43,17.26l-1.1,2.78h2.18l-1.08-2.78Zm-.77-2.14h1.54l3.09,8.05h-1.59l-.62-1.66h-3.31l-.64,1.66h-1.59l3.13-8.05Z"/>
  <polygon class="cls-2" points="70.21 15.12 71.65 15.12 75.14 20.42 75.14 15.12 76.65 15.12 76.65 23.17 75.19 23.17 71.73 17.89 71.73 23.17 70.21 23.17 70.21 15.12"/>
  <polygon class="cls-2" points="77.46 15.12 79.11 15.12 80.61 18.01 82.11 15.12 83.73 15.12 81.37 19.68 81.37 23.17 79.83 23.17 79.83 19.68 77.46 15.12"/>
</svg>